<svg xmlns="http://www.w3.org/2000/svg" width="24.5" height="24.841" viewBox="0 0 24.5 24.841">
  <g id="Grupo_758" data-name="Grupo 758" transform="translate(-2268 -222.5)">
    <line id="Linha_22" data-name="Linha 22" x2="4.4" transform="translate(2270.5 223)" fill="none" stroke="#707070" stroke-width="1"/>
    <line id="Linha_23" data-name="Linha 23" y2="15" transform="translate(2271 223.5)" fill="none" stroke="#707070" stroke-width="1"/>
    <line id="Linha_24" data-name="Linha 24" y2="15" transform="translate(2274.4 223.5)" fill="none" stroke="#707070" stroke-width="1"/>
    <line id="Linha_25" data-name="Linha 25" y2="15" transform="translate(2276 223.5)" fill="none" stroke="#707070" stroke-width="1"/>
    <line id="Linha_26" data-name="Linha 26" y2="15" transform="translate(2279 223.5)" fill="none" stroke="#707070" stroke-width="1"/>
    <line id="Linha_27" data-name="Linha 27" x2="4" transform="translate(2275.5 223)" fill="none" stroke="#707070" stroke-width="1"/>
    <line id="Linha_28" data-name="Linha 28" y2="12" transform="translate(2280.5 226.5)" fill="none" stroke="#707070" stroke-width="1"/>
    <line id="Linha_29" data-name="Linha 29" y2="12" transform="translate(2283.2 226.5)" fill="none" stroke="#707070" stroke-width="1"/>
    <line id="Linha_30" data-name="Linha 30" x2="3.7" transform="translate(2280 226.3)" fill="none" stroke="#707070" stroke-width="1"/>
    <path id="Caminho_13" data-name="Caminho 13" d="M2284.246,226.372l3.955,11.783" fill="none" stroke="#707070" stroke-width="1"/>
    <path id="Caminho_14" data-name="Caminho 14" d="M2283.919,226.9l3.193-.907" fill="none" stroke="#707070" stroke-width="1"/>
    <path id="Caminho_15" data-name="Caminho 15" d="M2286.533,225.853l3.878,11.484" fill="none" stroke="#707070" stroke-width="1"/>
    <path id="Caminho_16" data-name="Caminho 16" d="M2290.56,236.736l-2.888,1.053" fill="none" stroke="#707070" stroke-width="1"/>
    <path id="Caminho_17" data-name="Caminho 17" d="M2290.375,240.5v5.192l-.914.887-.912-1.265V240.5Z" fill="none" stroke="#707070" stroke-width="1"/>
    <path id="Caminho_18" data-name="Caminho 18" d="M2290.375,240.5v5.192l-.914.887-.912-1.265V240.5Z" transform="translate(-18.149)" fill="none" stroke="#707070" stroke-width="1"/>
    <line id="Linha_31" data-name="Linha 31" x2="24.5" transform="translate(2268 238.5)" fill="none" stroke="#707070" stroke-width="1"/>
    <line id="Linha_32" data-name="Linha 32" x2="24.5" transform="translate(2268 240.5)" fill="none" stroke="#707070" stroke-width="1"/>
    <line id="Linha_33" data-name="Linha 33" y2="2" transform="translate(2268.5 238.5)" fill="none" stroke="#707070" stroke-width="1"/>
    <line id="Linha_34" data-name="Linha 34" y2="2" transform="translate(2292 238.5)" fill="none" stroke="#707070" stroke-width="1"/>
  </g>
</svg>
